<svg width="24" height="24" viewBox="0 0 24 24" fill="none" xmlns="http://www.w3.org/2000/svg">
<path fill-rule="evenodd" clip-rule="evenodd" d="M3.75 6C3.75 4.75736 4.75736 3.75 6 3.75H18C19.2426 3.75 20.25 4.75736 20.25 6V8.25H3.75V6ZM2.25 9V6C2.25 3.92893 3.92893 2.25 6 2.25H18C20.0711 2.25 21.75 3.92893 21.75 6V9V12C21.75 12.4142 21.4142 12.75 21 12.75C20.5858 12.75 20.25 12.4142 20.25 12V9.75H3.75V18C3.75 19.2426 4.75736 20.25 6 20.25H9C9.41421 20.25 9.75 20.5858 9.75 21C9.75 21.4142 9.41421 21.75 9 21.75H6C3.92893 21.75 2.25 20.0711 2.25 18V9ZM11.5303 5.46466C11.2374 5.17177 10.7626 5.17177 10.4697 5.46466L10.4647 5.46967C10.1718 5.76256 10.1718 6.23743 10.4647 6.53032L10.4697 6.53533C10.7626 6.82822 11.2374 6.82822 11.5303 6.53533L11.5353 6.53032C11.8282 6.23743 11.8282 5.76256 11.5353 5.46967L11.5303 5.46466ZM7.96967 5.46466C8.26256 5.17177 8.73743 5.17177 9.03032 5.46466L9.03533 5.46967C9.32822 5.76256 9.32822 6.23743 9.03533 6.53032L9.03032 6.53533C8.73743 6.82822 8.26256 6.82822 7.96967 6.53533L7.96466 6.53032C7.67177 6.23743 7.67177 5.76256 7.96466 5.46967L7.96967 5.46466ZM6.53032 5.46466C6.23743 5.17177 5.76256 5.17177 5.46967 5.46466L5.46466 5.46967C5.17177 5.76256 5.17177 6.23743 5.46466 6.53032L5.46967 6.53533C5.76256 6.82822 6.23743 6.82822 6.53032 6.53533L6.53533 6.53032C6.82822 6.23743 6.82822 5.76256 6.53533 5.46967L6.53032 5.46466ZM13.2412 15.6585C13.241 15.6585 13.2416 15.657 13.2432 15.6541C13.2421 15.6571 13.2413 15.6585 13.2412 15.6585ZM13.25 15.6436C13.2616 15.6272 13.2868 15.5973 13.3375 15.5545C13.4715 15.4413 13.71 15.3056 14.0703 15.177C14.7843 14.922 15.82 14.75 17 14.75C18.18 14.75 19.2157 14.922 19.9297 15.177C20.29 15.3056 20.5285 15.4413 20.6625 15.5545C20.7132 15.5973 20.7384 15.6272 20.75 15.6436V16.8564C20.7384 16.8729 20.7132 16.9027 20.6625 16.9455C20.5285 17.0587 20.29 17.1944 19.9297 17.3231C19.2157 17.578 18.18 17.75 17 17.75C15.82 17.75 14.7843 17.578 14.0703 17.3231C13.71 17.1944 13.4715 17.0587 13.3375 16.9455C13.2868 16.9027 13.2616 16.8729 13.25 16.8564V15.6436ZM11.75 16.8929V15.6071C11.75 15.0789 12.0518 14.6769 12.3698 14.4085C12.6911 14.1371 13.1117 13.9265 13.5658 13.7643C14.4804 13.4377 15.6947 13.25 17 13.25C18.3053 13.25 19.5196 13.4377 20.4342 13.7643C20.8883 13.9265 21.3089 14.1371 21.6302 14.4085C21.9482 14.6769 22.25 15.0789 22.25 15.6071V16.8929V20.3929C22.25 20.9211 21.9482 21.3231 21.6302 21.5915C21.3089 21.8629 20.8883 22.0735 20.4342 22.2357C19.5196 22.5623 18.3053 22.75 17 22.75C15.6947 22.75 14.4804 22.5623 13.5658 22.2357C13.1117 22.0735 12.6911 21.8629 12.3698 21.5915C12.0518 21.3231 11.75 20.9211 11.75 20.3929V16.8929ZM20.75 18.6123V20.3564C20.7384 20.3728 20.7132 20.4027 20.6625 20.4455C20.5285 20.5587 20.29 20.6944 19.9297 20.823C19.2157 21.078 18.18 21.25 17 21.25C15.82 21.25 14.7843 21.078 14.0703 20.823C13.71 20.6944 13.4715 20.5587 13.3375 20.4455C13.2868 20.4027 13.2616 20.3728 13.25 20.3564V18.6123C13.3528 18.6562 13.4584 18.6973 13.5658 18.7357C14.4804 19.0623 15.6947 19.25 17 19.25C18.3053 19.25 19.5196 19.0623 20.4342 18.7357C20.5416 18.6973 20.6472 18.6562 20.75 18.6123ZM13.2412 20.3415C13.2413 20.3415 13.2421 20.3429 13.2432 20.3459C13.2416 20.343 13.241 20.3415 13.2412 20.3415ZM20.7588 20.3415C20.7589 20.3415 20.7589 20.3416 20.7587 20.342C20.7586 20.3423 20.7584 20.3429 20.758 20.3436C20.7577 20.3442 20.7573 20.345 20.7568 20.3459C20.7579 20.3429 20.7587 20.3415 20.7588 20.3415ZM20.7588 15.6585C20.7587 15.6585 20.7579 15.6571 20.7568 15.6541C20.7584 15.657 20.759 15.6585 20.7588 15.6585Z" fill="#1C1F25"/>
</svg>
