<svg width="24" height="24" viewBox="0 0 24 24" fill="none" xmlns="http://www.w3.org/2000/svg">
<path fill-rule="evenodd" clip-rule="evenodd" d="M13.25 3C13.25 2.58579 13.5858 2.25 14 2.25H18C20.0711 2.25 21.75 3.92893 21.75 6V9C21.75 9.41421 21.4142 9.75 21 9.75C20.5858 9.75 20.25 9.41421 20.25 9V6C20.25 4.75736 19.2426 3.75 18 3.75H14C13.5858 3.75 13.25 3.41421 13.25 3ZM3 13.25C3.41421 13.25 3.75 13.5858 3.75 14V18C3.75 19.2426 4.75736 20.25 6 20.25H9C9.41421 20.25 9.75 20.5858 9.75 21C9.75 21.4142 9.41421 21.75 9 21.75H6C3.92893 21.75 2.25 20.0711 2.25 18V14C2.25 13.5858 2.58579 13.25 3 13.25ZM3.27827 2.25C2.73096 2.25 2.28262 2.68472 2.26575 3.23177C2.24887 3.77881 2.66957 4.24034 3.21583 4.27407C3.25742 4.27664 3.29912 4.27664 3.3407 4.27407C3.88697 4.24034 4.30766 3.77881 4.29079 3.23177C4.27391 2.68472 3.82557 2.25 3.27827 2.25ZM6.48064 2.25074C6.89471 2.24005 7.23906 2.56705 7.24975 2.98113C7.30913 5.27951 5.49406 7.19085 3.19568 7.25024C3.124 7.2521 3.0523 7.2521 2.98061 7.25024C2.56654 7.23953 2.23955 6.89518 2.25026 6.4811C2.26097 6.06703 2.60532 5.74003 3.0194 5.75074C3.06524 5.75193 3.11107 5.75193 3.15689 5.75074L3.15692 5.75074C4.62716 5.71276 5.78824 4.4901 5.75026 3.01986C5.73956 2.60579 6.06656 2.26144 6.48064 2.25074ZM10.75 3.00516C10.7526 2.59096 10.4189 2.25309 10.0047 2.2505C9.59047 2.24792 9.2526 2.58161 9.25002 2.99581C9.24528 3.75595 9.11542 4.51011 8.86564 5.22805L8.86534 5.22893C8.27435 6.93446 6.93397 8.27484 5.22844 8.86583L5.22822 8.8659C4.50967 9.11514 3.75516 9.24506 2.99463 9.25051C2.58043 9.25347 2.24705 9.59166 2.25002 10.0059C2.25299 10.4201 2.59117 10.7534 3.00537 10.7505C3.92962 10.7438 4.84655 10.586 5.71978 10.2831C7.8594 9.54159 9.54097 7.86008 10.2825 5.72049C10.5863 4.84717 10.7442 3.92979 10.75 3.00516ZM13.25 14.8936C13.2616 14.8772 13.2868 14.8473 13.3375 14.8045C13.4715 14.6913 13.71 14.5556 14.0703 14.427C14.7843 14.172 15.82 14 17 14C18.18 14 19.2157 14.172 19.9297 14.427C20.29 14.5556 20.5285 14.6913 20.6625 14.8045C20.7132 14.8473 20.7384 14.8772 20.75 14.8936V16.1064C20.7384 16.1229 20.7132 16.1527 20.6625 16.1955C20.5285 16.3087 20.29 16.4444 19.9297 16.5731C19.2157 16.828 18.18 17 17 17C15.82 17 14.7843 16.828 14.0703 16.5731C13.71 16.4444 13.4715 16.3087 13.3375 16.1955C13.2868 16.1527 13.2616 16.1229 13.25 16.1064V14.8936ZM11.75 16.1429V14.8571C11.75 14.3289 12.0518 13.9269 12.3698 13.6585C12.6911 13.3871 13.1117 13.1765 13.5658 13.0143C14.4804 12.6877 15.6947 12.5 17 12.5C18.3053 12.5 19.5196 12.6877 20.4342 13.0143C20.8883 13.1765 21.3089 13.3871 21.6302 13.6585C21.9482 13.9269 22.25 14.3289 22.25 14.8571V16.1429V19.6429C22.25 20.1711 21.9482 20.5731 21.6302 20.8415C21.3089 21.1129 20.8883 21.3235 20.4342 21.4857C19.5196 21.8123 18.3053 22 17 22C15.6947 22 14.4804 21.8123 13.5658 21.4857C13.1117 21.3235 12.6911 21.1129 12.3698 20.8415C12.0518 20.5731 11.75 20.1711 11.75 19.6429V16.1429ZM20.75 17.8623V19.6064C20.7384 19.6228 20.7132 19.6527 20.6625 19.6955C20.5285 19.8087 20.29 19.9444 19.9297 20.073C19.2157 20.328 18.18 20.5 17 20.5C15.82 20.5 14.7843 20.328 14.0703 20.073C13.71 19.9444 13.4715 19.8087 13.3375 19.6955C13.2868 19.6527 13.2616 19.6228 13.25 19.6064V17.8623C13.3528 17.9062 13.4584 17.9473 13.5658 17.9857C14.4804 18.3123 15.6947 18.5 17 18.5C18.3053 18.5 19.5196 18.3123 20.4342 17.9857C20.5416 17.9473 20.6472 17.9062 20.75 17.8623Z" fill="#4B5162"/>
</svg>
