<svg width="24" height="24" viewBox="0 0 24 24" fill="none" xmlns="http://www.w3.org/2000/svg">
<path fill-rule="evenodd" clip-rule="evenodd" d="M3.75 4.5C3.75 4.08579 4.08579 3.75 4.5 3.75H19.5C19.9142 3.75 20.25 4.08579 20.25 4.5V8C20.25 8.41421 20.5858 8.75 21 8.75C21.4142 8.75 21.75 8.41421 21.75 8V4.5C21.75 3.25736 20.7426 2.25 19.5 2.25H4.5C3.25736 2.25 2.25 3.25736 2.25 4.5V9.5C2.25 10.0763 2.46664 10.6019 2.82292 11C2.46664 11.3981 2.25 11.9237 2.25 12.5V17.5C2.25 18.7426 3.25736 19.75 4.5 19.75H9C9.41421 19.75 9.75 19.4142 9.75 19C9.75 18.5858 9.41421 18.25 9 18.25H4.5C4.08579 18.25 3.75 17.9142 3.75 17.5V12.5C3.75 12.0858 4.08579 11.75 4.5 11.75H9C9.41421 11.75 9.75 11.4142 9.75 11C9.75 10.5858 9.41421 10.25 9 10.25H4.5C4.08579 10.25 3.75 9.91421 3.75 9.5V4.5ZM7.25 6.51251C7.25 6.0983 6.91421 5.76251 6.5 5.76251C6.08579 5.76251 5.75 6.0983 5.75 6.51251V7.51251C5.75 7.92673 6.08579 8.26251 6.5 8.26251C6.91421 8.26251 7.25 7.92673 7.25 7.51251V6.51251ZM12.25 7.01251C12.25 6.5983 12.5858 6.26251 13 6.26251H18.0125C18.4267 6.26251 18.7625 6.5983 18.7625 7.01251C18.7625 7.42673 18.4267 7.76251 18.0125 7.76251H13C12.5858 7.76251 12.25 7.42673 12.25 7.01251ZM6.4873 13.7375C6.90152 13.7375 7.2373 14.0733 7.2373 14.4875V15.4875C7.2373 15.9018 6.90152 16.2375 6.4873 16.2375C6.07309 16.2375 5.7373 15.9018 5.7373 15.4875V14.4875C5.7373 14.0733 6.07309 13.7375 6.4873 13.7375ZM9.5 5.76251C9.91421 5.76251 10.25 6.0983 10.25 6.51251V7.51251C10.25 7.92673 9.91421 8.26251 9.5 8.26251C9.08579 8.26251 8.75 7.92673 8.75 7.51251V6.51251C8.75 6.0983 9.08579 5.76251 9.5 5.76251ZM16.7803 15.2197L15.5303 13.9697C15.2374 13.6768 14.7626 13.6768 14.4697 13.9697C14.1768 14.2626 14.1768 14.7374 14.4697 15.0303L15.1893 15.75L14.4697 16.4697C14.1768 16.7626 14.1768 17.2374 14.4697 17.5303C14.7626 17.8232 15.2374 17.8232 15.5303 17.5303L16.7803 16.2803C17.0732 15.9874 17.0732 15.5126 16.7803 15.2197ZM17.25 17.5C17.25 17.0858 17.5858 16.75 18 16.75H19C19.4142 16.75 19.75 17.0858 19.75 17.5C19.75 17.9142 19.4142 18.25 19 18.25H18C17.5858 18.25 17.25 17.9142 17.25 17.5ZM15 10.25C12.9289 10.25 11.25 11.9289 11.25 14V18C11.25 20.0711 12.9289 21.75 15 21.75H19C21.0711 21.75 22.75 20.0711 22.75 18V14C22.75 11.9289 21.0711 10.25 19 10.25H15ZM12.75 14C12.75 12.7574 13.7574 11.75 15 11.75H19C20.2426 11.75 21.25 12.7574 21.25 14V18C21.25 19.2426 20.2426 20.25 19 20.25H15C13.7574 20.25 12.75 19.2426 12.75 18V14Z" fill="#4B5162"/>
</svg>
