<svg width="16" height="16" viewBox="0 0 16 16" fill="none" xmlns="http://www.w3.org/2000/svg">
<path fill-rule="evenodd" clip-rule="evenodd" d="M13 0.5C13.663 0.5 14.2989 0.763392 14.7678 1.23223C15.2366 1.70107 15.5 2.33696 15.5 3V13C15.5 13.663 15.2366 14.2989 14.7678 14.7678C14.2989 15.2366 13.663 15.5 13 15.5H3C2.33696 15.5 1.70107 15.2366 1.23223 14.7678C0.763392 14.2989 0.5 13.663 0.5 13V3C0.5 2.33696 0.763392 1.70107 1.23223 1.23223C1.70107 0.763392 2.33696 0.5 3 0.5H13ZM4.66667 6.33333C4.44565 6.33333 4.23369 6.42113 4.07741 6.57741C3.92113 6.73369 3.83333 6.94565 3.83333 7.16667V11.3333C3.83333 11.5543 3.92113 11.7663 4.07741 11.9226C4.23369 12.0789 4.44565 12.1667 4.66667 12.1667C4.88768 12.1667 5.09964 12.0789 5.25592 11.9226C5.4122 11.7663 5.5 11.5543 5.5 11.3333V7.16667C5.5 6.94565 5.4122 6.73369 5.25592 6.57741C5.09964 6.42113 4.88768 6.33333 4.66667 6.33333ZM7.16667 5.5C6.94565 5.5 6.73369 5.5878 6.57741 5.74408C6.42113 5.90036 6.33333 6.11232 6.33333 6.33333V11.3333C6.33333 11.5543 6.42113 11.7663 6.57741 11.9226C6.73369 12.0789 6.94565 12.1667 7.16667 12.1667C7.38768 12.1667 7.59964 12.0789 7.75592 11.9226C7.9122 11.7663 8 11.5543 8 11.3333V8.28333C8.32511 7.92969 8.7205 7.64784 9.16083 7.45583C9.43833 7.3375 9.85583 7.28917 10.1458 7.38083C10.242 7.40524 10.3277 7.46022 10.39 7.5375C10.4333 7.59583 10.5 7.72583 10.5 8V11.3333C10.5 11.5543 10.5878 11.7663 10.7441 11.9226C10.9004 12.0789 11.1123 12.1667 11.3333 12.1667C11.5543 12.1667 11.7663 12.0789 11.9226 11.9226C12.0789 11.7663 12.1667 11.5543 12.1667 11.3333V8C12.1667 7.44167 12.025 6.945 11.73 6.54667C11.4585 6.18546 11.0786 5.9206 10.6458 5.79083C9.89417 5.555 9.06167 5.68583 8.50583 5.92417C8.32774 6.00039 8.15437 6.08721 7.98667 6.18417C7.95173 5.99216 7.85052 5.8185 7.70066 5.69347C7.55081 5.56844 7.36183 5.49997 7.16667 5.5ZM4.66667 3.83333C4.44565 3.83333 4.23369 3.92113 4.07741 4.07741C3.92113 4.23369 3.83333 4.44565 3.83333 4.66667C3.83333 4.88768 3.92113 5.09964 4.07741 5.25592C4.23369 5.4122 4.44565 5.5 4.66667 5.5C4.88768 5.5 5.09964 5.4122 5.25592 5.25592C5.4122 5.09964 5.5 4.88768 5.5 4.66667C5.5 4.44565 5.4122 4.23369 5.25592 4.07741C5.09964 3.92113 4.88768 3.83333 4.66667 3.83333Z" fill="#343844"/>
</svg>
