<svg width="16" height="16" viewBox="0 0 16 16" fill="none" xmlns="http://www.w3.org/2000/svg">
<path fill-rule="evenodd" clip-rule="evenodd" d="M15.0784 3.08455C15.3013 3.6733 15.4177 4.29782 15.4268 4.92733C15.4732 5.71947 15.4734 5.97854 15.475 7.98365L15.4751 8.01165C15.4751 10.0432 15.4643 10.2968 15.4285 11.0968C15.416 11.7197 15.2988 12.3334 15.0801 12.9155C14.6901 13.92 13.8959 14.715 12.8905 15.105C12.3084 15.3237 11.6939 15.441 11.0727 15.4534C10.2786 15.5 10.0183 15.5 7.98766 15.5H7.98754C5.95682 15.5 5.70319 15.4892 4.90238 15.4534C4.27869 15.4335 3.66416 15.3054 3.08538 15.0792C2.07917 14.6901 1.28501 13.8951 0.895 12.8905C0.676295 12.3076 0.559042 11.6939 0.546568 11.0719C0.5 10.2769 0.5 10.0174 0.5 7.9867C0.5 5.95599 0.510811 5.70236 0.546568 4.90155C0.558211 4.28036 0.676295 3.66582 0.895 3.08455C1.28418 2.07917 2.07917 1.28418 3.08455 0.895C3.66582 0.676295 4.28036 0.559042 4.90155 0.545737C5.6957 0.5 5.95599 0.5 7.9867 0.5C10.0174 0.5 10.2711 0.509979 11.071 0.545737C11.693 0.559042 12.3076 0.676295 12.8889 0.895C13.8942 1.28418 14.6884 2.07917 15.0784 3.08455ZM4.13733 7.98255C4.13733 10.1064 5.85786 11.8269 7.98171 11.8269C10.1039 11.8269 11.8261 10.1064 11.8261 7.98255C11.8261 5.85869 10.1039 4.13816 7.98171 4.13816C5.85786 4.13816 4.13733 5.85869 4.13733 7.98255ZM11.0827 3.99596C11.0827 4.49158 11.4827 4.8924 11.9791 4.8924C12.4739 4.8924 12.8747 4.49158 12.8747 3.99596C12.8747 3.50034 12.4739 3.09951 11.9791 3.09951C11.4827 3.09951 11.0827 3.50034 11.0827 3.99596ZM10.4789 7.98251C10.4789 9.36169 9.36085 10.4797 7.98167 10.4797C6.60248 10.4797 5.48444 9.36169 5.48444 7.98251C5.48444 6.60332 6.60248 5.48528 7.98167 5.48528C9.36085 5.48528 10.4789 6.60332 10.4789 7.98251Z" fill="#343844"/>
</svg>
